<mxfile host="Electron" agent="Mozilla/5.0 (Windows NT 10.0; Win64; x64) AppleWebKit/537.36 (KHTML, like Gecko) draw.io/28.0.4 Chrome/138.0.7204.97 Electron/37.2.1 Safari/537.36" version="28.0.4">
  <diagram name="Page-1" id="2B-cAl-7UJcRyvpfFNDn">
    <mxGraphModel dx="821" dy="475" grid="1" gridSize="10" guides="1" tooltips="1" connect="1" arrows="1" fold="1" page="1" pageScale="1" pageWidth="1169" pageHeight="827" math="0" shadow="0">
      <root>
        <mxCell id="0" />
        <mxCell id="1" parent="0" />
        <mxCell id="AU0Bn2eRXu3hNvQElTDZ-2" value="" style="rounded=0;whiteSpace=wrap;html=1;fillColor=none;fontColor=#333333;strokeColor=#666666;dashed=1;" parent="1" vertex="1">
          <mxGeometry x="40" y="80" width="120" height="300" as="geometry" />
        </mxCell>
        <mxCell id="AU0Bn2eRXu3hNvQElTDZ-1" value="&lt;b&gt;&lt;font style=&quot;font-size: 40px;&quot;&gt;Data Flow&lt;/font&gt;&lt;/b&gt;" style="text;html=1;align=center;verticalAlign=middle;resizable=0;points=[];autosize=1;strokeColor=none;fillColor=none;fontSize=25;" parent="1" vertex="1">
          <mxGeometry x="320" y="10" width="210" height="60" as="geometry" />
        </mxCell>
        <mxCell id="AU0Bn2eRXu3hNvQElTDZ-3" value="&lt;b&gt;Sources&lt;/b&gt;" style="rounded=0;whiteSpace=wrap;html=1;fillColor=default;strokeColor=none;" parent="1" vertex="1">
          <mxGeometry x="75" y="70" width="50" height="20" as="geometry" />
        </mxCell>
        <mxCell id="AU0Bn2eRXu3hNvQElTDZ-30" style="edgeStyle=orthogonalEdgeStyle;rounded=0;orthogonalLoop=1;jettySize=auto;html=1;entryX=0;entryY=0.5;entryDx=0;entryDy=0;" parent="1" source="AU0Bn2eRXu3hNvQElTDZ-4" target="AU0Bn2eRXu3hNvQElTDZ-11" edge="1">
          <mxGeometry relative="1" as="geometry" />
        </mxCell>
        <mxCell id="AU0Bn2eRXu3hNvQElTDZ-33" style="edgeStyle=orthogonalEdgeStyle;rounded=0;orthogonalLoop=1;jettySize=auto;html=1;" parent="1" source="AU0Bn2eRXu3hNvQElTDZ-4" target="AU0Bn2eRXu3hNvQElTDZ-10" edge="1">
          <mxGeometry relative="1" as="geometry" />
        </mxCell>
        <mxCell id="AU0Bn2eRXu3hNvQElTDZ-4" value="CRM" style="image;aspect=fixed;html=1;points=[];align=center;fontSize=12;image=img/lib/azure2/general/Folder_Blank.svg;" parent="1" vertex="1">
          <mxGeometry x="62.41" y="178.55" width="55" height="44.64" as="geometry" />
        </mxCell>
        <mxCell id="AU0Bn2eRXu3hNvQElTDZ-32" style="edgeStyle=orthogonalEdgeStyle;rounded=0;orthogonalLoop=1;jettySize=auto;html=1;" parent="1" source="AU0Bn2eRXu3hNvQElTDZ-5" target="AU0Bn2eRXu3hNvQElTDZ-14" edge="1">
          <mxGeometry relative="1" as="geometry" />
        </mxCell>
        <mxCell id="AU0Bn2eRXu3hNvQElTDZ-35" style="edgeStyle=orthogonalEdgeStyle;rounded=0;orthogonalLoop=1;jettySize=auto;html=1;entryX=0;entryY=0.5;entryDx=0;entryDy=0;" parent="1" source="AU0Bn2eRXu3hNvQElTDZ-5" target="AU0Bn2eRXu3hNvQElTDZ-13" edge="1">
          <mxGeometry relative="1" as="geometry" />
        </mxCell>
        <mxCell id="AU0Bn2eRXu3hNvQElTDZ-36" style="edgeStyle=orthogonalEdgeStyle;rounded=0;orthogonalLoop=1;jettySize=auto;html=1;entryX=0;entryY=0.5;entryDx=0;entryDy=0;" parent="1" source="AU0Bn2eRXu3hNvQElTDZ-5" target="AU0Bn2eRXu3hNvQElTDZ-15" edge="1">
          <mxGeometry relative="1" as="geometry" />
        </mxCell>
        <mxCell id="AU0Bn2eRXu3hNvQElTDZ-5" value="ERP" style="image;aspect=fixed;html=1;points=[];align=center;fontSize=12;image=img/lib/azure2/general/Folder_Blank.svg;" parent="1" vertex="1">
          <mxGeometry x="65" y="287.68" width="55" height="44.64" as="geometry" />
        </mxCell>
        <mxCell id="AU0Bn2eRXu3hNvQElTDZ-6" value="" style="rounded=1;whiteSpace=wrap;html=1;fillColor=none;strokeColor=#d79b00;labelBackgroundColor=none;labelBorderColor=none;textShadow=0;convertToSvg=0;glass=1;perimeterSpacing=1;fillStyle=dashed;strokeWidth=1;" parent="1" vertex="1">
          <mxGeometry x="240" y="120" width="120" height="260" as="geometry" />
        </mxCell>
        <mxCell id="AU0Bn2eRXu3hNvQElTDZ-9" value="&lt;b&gt;Bronze Layer&lt;/b&gt;" style="rounded=1;whiteSpace=wrap;html=1;fillColor=#ffe6cc;strokeColor=#d79b00;" parent="1" vertex="1">
          <mxGeometry x="240" y="80" width="120" height="30" as="geometry" />
        </mxCell>
        <mxCell id="AU0Bn2eRXu3hNvQElTDZ-53" style="edgeStyle=orthogonalEdgeStyle;rounded=0;orthogonalLoop=1;jettySize=auto;html=1;exitX=1;exitY=0.5;exitDx=0;exitDy=0;" parent="1" source="AU0Bn2eRXu3hNvQElTDZ-10" target="AU0Bn2eRXu3hNvQElTDZ-39" edge="1">
          <mxGeometry relative="1" as="geometry" />
        </mxCell>
        <mxCell id="AU0Bn2eRXu3hNvQElTDZ-10" value="crm_cust_info" style="rounded=1;whiteSpace=wrap;html=1;fillColor=#ffe6cc;strokeColor=#d79b00;fontSize=10;" parent="1" vertex="1">
          <mxGeometry x="255" y="163.48" width="95" height="20" as="geometry" />
        </mxCell>
        <mxCell id="AU0Bn2eRXu3hNvQElTDZ-55" style="edgeStyle=orthogonalEdgeStyle;rounded=0;orthogonalLoop=1;jettySize=auto;html=1;" parent="1" source="AU0Bn2eRXu3hNvQElTDZ-11" target="AU0Bn2eRXu3hNvQElTDZ-40" edge="1">
          <mxGeometry relative="1" as="geometry" />
        </mxCell>
        <mxCell id="AU0Bn2eRXu3hNvQElTDZ-11" value="&lt;div&gt;crm_prd_info&lt;/div&gt;" style="rounded=1;whiteSpace=wrap;html=1;fillColor=#ffe6cc;strokeColor=#d79b00;fontSize=10;align=center;spacing=0;spacingBottom=0;" parent="1" vertex="1">
          <mxGeometry x="255" y="191.73999999999998" width="95" height="20" as="geometry" />
        </mxCell>
        <mxCell id="AU0Bn2eRXu3hNvQElTDZ-57" style="edgeStyle=orthogonalEdgeStyle;rounded=0;orthogonalLoop=1;jettySize=auto;html=1;" parent="1" source="AU0Bn2eRXu3hNvQElTDZ-12" target="AU0Bn2eRXu3hNvQElTDZ-41" edge="1">
          <mxGeometry relative="1" as="geometry" />
        </mxCell>
        <mxCell id="AU0Bn2eRXu3hNvQElTDZ-12" value="&lt;div&gt;crm_sales_details&lt;/div&gt;" style="rounded=1;whiteSpace=wrap;html=1;fillColor=#ffe6cc;strokeColor=#d79b00;fontSize=10;" parent="1" vertex="1">
          <mxGeometry x="255" y="220" width="95" height="20" as="geometry" />
        </mxCell>
        <mxCell id="AU0Bn2eRXu3hNvQElTDZ-60" style="edgeStyle=orthogonalEdgeStyle;rounded=0;orthogonalLoop=1;jettySize=auto;html=1;entryX=0;entryY=0.5;entryDx=0;entryDy=0;" parent="1" source="AU0Bn2eRXu3hNvQElTDZ-13" target="AU0Bn2eRXu3hNvQElTDZ-42" edge="1">
          <mxGeometry relative="1" as="geometry" />
        </mxCell>
        <mxCell id="AU0Bn2eRXu3hNvQElTDZ-13" value="erp_cust_az12" style="rounded=1;whiteSpace=wrap;html=1;fillColor=#ffe6cc;strokeColor=#d79b00;fontSize=10;" parent="1" vertex="1">
          <mxGeometry x="255" y="271.74" width="95" height="20" as="geometry" />
        </mxCell>
        <mxCell id="AU0Bn2eRXu3hNvQElTDZ-61" style="edgeStyle=orthogonalEdgeStyle;rounded=0;orthogonalLoop=1;jettySize=auto;html=1;" parent="1" source="AU0Bn2eRXu3hNvQElTDZ-14" target="AU0Bn2eRXu3hNvQElTDZ-43" edge="1">
          <mxGeometry relative="1" as="geometry" />
        </mxCell>
        <mxCell id="AU0Bn2eRXu3hNvQElTDZ-14" value="&lt;div&gt;erp_loc_a101&lt;/div&gt;" style="rounded=1;whiteSpace=wrap;html=1;fillColor=#ffe6cc;strokeColor=#d79b00;fontSize=10;" parent="1" vertex="1">
          <mxGeometry x="255" y="300" width="95" height="20" as="geometry" />
        </mxCell>
        <mxCell id="AU0Bn2eRXu3hNvQElTDZ-62" style="edgeStyle=orthogonalEdgeStyle;rounded=0;orthogonalLoop=1;jettySize=auto;html=1;" parent="1" source="AU0Bn2eRXu3hNvQElTDZ-15" target="AU0Bn2eRXu3hNvQElTDZ-44" edge="1">
          <mxGeometry relative="1" as="geometry" />
        </mxCell>
        <mxCell id="AU0Bn2eRXu3hNvQElTDZ-15" value="&lt;div&gt;erp_px_cat_g1v2&lt;/div&gt;" style="rounded=1;whiteSpace=wrap;html=1;fillColor=#ffe6cc;strokeColor=#d79b00;fontSize=10;" parent="1" vertex="1">
          <mxGeometry x="255" y="328.26" width="95" height="20" as="geometry" />
        </mxCell>
        <mxCell id="AU0Bn2eRXu3hNvQElTDZ-34" style="edgeStyle=orthogonalEdgeStyle;rounded=0;orthogonalLoop=1;jettySize=auto;html=1;entryX=0.034;entryY=0.53;entryDx=0;entryDy=0;entryPerimeter=0;" parent="1" source="AU0Bn2eRXu3hNvQElTDZ-4" target="AU0Bn2eRXu3hNvQElTDZ-12" edge="1">
          <mxGeometry relative="1" as="geometry" />
        </mxCell>
        <mxCell id="AU0Bn2eRXu3hNvQElTDZ-37" value="" style="rounded=1;whiteSpace=wrap;html=1;fillColor=none;strokeColor=#666666;labelBackgroundColor=none;labelBorderColor=none;textShadow=0;convertToSvg=0;glass=1;perimeterSpacing=1;fontColor=#333333;fillStyle=dashed;strokeWidth=1;" parent="1" vertex="1">
          <mxGeometry x="440" y="120" width="120" height="260" as="geometry" />
        </mxCell>
        <mxCell id="AU0Bn2eRXu3hNvQElTDZ-38" value="&lt;b&gt;Silver Layer&lt;/b&gt;" style="rounded=1;whiteSpace=wrap;html=1;fillColor=#f5f5f5;strokeColor=#666666;fontColor=#333333;" parent="1" vertex="1">
          <mxGeometry x="440" y="80" width="120" height="30" as="geometry" />
        </mxCell>
        <mxCell id="AU0Bn2eRXu3hNvQElTDZ-66" value="" style="edgeStyle=orthogonalEdgeStyle;rounded=0;orthogonalLoop=1;jettySize=auto;html=1;" parent="1" source="AU0Bn2eRXu3hNvQElTDZ-39" target="AU0Bn2eRXu3hNvQElTDZ-47" edge="1">
          <mxGeometry relative="1" as="geometry">
            <Array as="points">
              <mxPoint x="570" y="180" />
              <mxPoint x="570" y="180" />
            </Array>
          </mxGeometry>
        </mxCell>
        <mxCell id="AU0Bn2eRXu3hNvQElTDZ-39" value="crm_cust_info" style="rounded=1;whiteSpace=wrap;html=1;fillColor=#f5f5f5;strokeColor=#666666;fontSize=10;fontColor=#333333;" parent="1" vertex="1">
          <mxGeometry x="455" y="163.48" width="95" height="20" as="geometry" />
        </mxCell>
        <mxCell id="AU0Bn2eRXu3hNvQElTDZ-40" value="&lt;div&gt;crm_prd_info&lt;/div&gt;" style="rounded=1;whiteSpace=wrap;html=1;fillColor=#f5f5f5;strokeColor=#666666;fontSize=10;align=center;spacing=0;spacingBottom=0;fontColor=#333333;" parent="1" vertex="1">
          <mxGeometry x="455" y="191.74" width="95" height="18.26" as="geometry" />
        </mxCell>
        <mxCell id="AU0Bn2eRXu3hNvQElTDZ-41" value="&lt;div&gt;crm_sales_details&lt;/div&gt;" style="rounded=1;whiteSpace=wrap;html=1;fillColor=#f5f5f5;strokeColor=#666666;fontSize=10;fontColor=#333333;" parent="1" vertex="1">
          <mxGeometry x="455" y="220" width="95" height="20" as="geometry" />
        </mxCell>
        <mxCell id="AU0Bn2eRXu3hNvQElTDZ-42" value="erp_cust_az12" style="rounded=1;whiteSpace=wrap;html=1;fillColor=#f5f5f5;strokeColor=#666666;fontSize=10;fontColor=#333333;" parent="1" vertex="1">
          <mxGeometry x="455" y="271.74" width="95" height="20" as="geometry" />
        </mxCell>
        <mxCell id="AU0Bn2eRXu3hNvQElTDZ-43" value="&lt;div&gt;erp_loc_a101&lt;/div&gt;" style="rounded=1;whiteSpace=wrap;html=1;fillColor=#f5f5f5;strokeColor=#666666;fontSize=10;fontColor=#333333;" parent="1" vertex="1">
          <mxGeometry x="455" y="300" width="95" height="20" as="geometry" />
        </mxCell>
        <mxCell id="AU0Bn2eRXu3hNvQElTDZ-44" value="&lt;div&gt;erp_px_cat_g1v2&lt;/div&gt;" style="rounded=1;whiteSpace=wrap;html=1;fillColor=#f5f5f5;strokeColor=#666666;fontSize=10;fontColor=#333333;" parent="1" vertex="1">
          <mxGeometry x="455" y="328.26" width="95" height="20" as="geometry" />
        </mxCell>
        <mxCell id="AU0Bn2eRXu3hNvQElTDZ-45" value="" style="rounded=1;whiteSpace=wrap;html=1;fillColor=none;strokeColor=#d6b656;labelBackgroundColor=none;labelBorderColor=none;textShadow=0;convertToSvg=0;glass=1;perimeterSpacing=1;fillStyle=dashed;strokeWidth=1;" parent="1" vertex="1">
          <mxGeometry x="640" y="120" width="120" height="260" as="geometry" />
        </mxCell>
        <mxCell id="AU0Bn2eRXu3hNvQElTDZ-46" value="&lt;b&gt;Gold Layer&lt;/b&gt;" style="rounded=1;whiteSpace=wrap;html=1;fillColor=#fff2cc;strokeColor=#d6b656;" parent="1" vertex="1">
          <mxGeometry x="640" y="80" width="120" height="30" as="geometry" />
        </mxCell>
        <mxCell id="AU0Bn2eRXu3hNvQElTDZ-47" value="fact_sales" style="rounded=1;whiteSpace=wrap;html=1;fillColor=#fff2cc;strokeColor=#d6b656;fontSize=10;" parent="1" vertex="1">
          <mxGeometry x="652.5" y="170" width="95" height="20" as="geometry" />
        </mxCell>
        <mxCell id="AU0Bn2eRXu3hNvQElTDZ-51" value="dim_customers" style="rounded=1;whiteSpace=wrap;html=1;fillColor=#fff2cc;strokeColor=#d6b656;fontSize=10;" parent="1" vertex="1">
          <mxGeometry x="652.5" y="220" width="95" height="20" as="geometry" />
        </mxCell>
        <mxCell id="AU0Bn2eRXu3hNvQElTDZ-52" value="&lt;div&gt;dim_products&lt;/div&gt;" style="rounded=1;whiteSpace=wrap;html=1;fillColor=#fff2cc;strokeColor=#d6b656;fontSize=10;" parent="1" vertex="1">
          <mxGeometry x="652.5" y="291.74" width="95" height="20" as="geometry" />
        </mxCell>
        <mxCell id="AU0Bn2eRXu3hNvQElTDZ-84" value="" style="endArrow=classic;html=1;rounded=0;entryX=0;entryY=1;entryDx=0;entryDy=0;" parent="1" target="AU0Bn2eRXu3hNvQElTDZ-51" edge="1">
          <mxGeometry width="50" height="50" relative="1" as="geometry">
            <mxPoint x="540" y="310" as="sourcePoint" />
            <mxPoint x="590" y="260" as="targetPoint" />
          </mxGeometry>
        </mxCell>
        <mxCell id="AU0Bn2eRXu3hNvQElTDZ-85" value="" style="endArrow=classic;html=1;rounded=0;exitX=1;exitY=0.5;exitDx=0;exitDy=0;entryX=0;entryY=0.25;entryDx=0;entryDy=0;" parent="1" source="AU0Bn2eRXu3hNvQElTDZ-40" target="AU0Bn2eRXu3hNvQElTDZ-51" edge="1">
          <mxGeometry width="50" height="50" relative="1" as="geometry">
            <mxPoint x="540" y="210" as="sourcePoint" />
            <mxPoint x="630" y="240" as="targetPoint" />
          </mxGeometry>
        </mxCell>
        <mxCell id="AU0Bn2eRXu3hNvQElTDZ-88" value="" style="endArrow=classic;html=1;rounded=0;entryX=0;entryY=0.75;entryDx=0;entryDy=0;" parent="1" target="AU0Bn2eRXu3hNvQElTDZ-52" edge="1">
          <mxGeometry width="50" height="50" relative="1" as="geometry">
            <mxPoint x="540" y="341.74" as="sourcePoint" />
            <mxPoint x="590" y="291.74" as="targetPoint" />
          </mxGeometry>
        </mxCell>
        <mxCell id="AU0Bn2eRXu3hNvQElTDZ-89" value="" style="endArrow=classic;html=1;rounded=0;entryX=0;entryY=0.5;entryDx=0;entryDy=0;" parent="1" target="AU0Bn2eRXu3hNvQElTDZ-52" edge="1">
          <mxGeometry width="50" height="50" relative="1" as="geometry">
            <mxPoint x="540" y="233.48000000000002" as="sourcePoint" />
            <mxPoint x="590" y="183.48000000000002" as="targetPoint" />
          </mxGeometry>
        </mxCell>
        <mxCell id="AU0Bn2eRXu3hNvQElTDZ-91" value="" style="endArrow=classic;html=1;rounded=0;entryX=0;entryY=0.5;entryDx=0;entryDy=0;" parent="1" target="AU0Bn2eRXu3hNvQElTDZ-51" edge="1">
          <mxGeometry width="50" height="50" relative="1" as="geometry">
            <mxPoint x="540" y="280" as="sourcePoint" />
            <mxPoint x="590" y="230" as="targetPoint" />
          </mxGeometry>
        </mxCell>
        <mxCell id="AU0Bn2eRXu3hNvQElTDZ-92" value="" style="image;aspect=fixed;html=1;points=[];align=center;fontSize=12;image=img/lib/azure2/general/File.svg;" parent="1" vertex="1">
          <mxGeometry x="93.06" y="191.74" width="26.94" height="33.19" as="geometry" />
        </mxCell>
        <mxCell id="AU0Bn2eRXu3hNvQElTDZ-96" value="" style="image;aspect=fixed;html=1;points=[];align=center;fontSize=12;image=img/lib/azure2/general/File.svg;" parent="1" vertex="1">
          <mxGeometry x="96.53" y="300" width="26.94" height="33.19" as="geometry" />
        </mxCell>
      </root>
    </mxGraphModel>
  </diagram>
</mxfile>
